<svg xmlns="http://www.w3.org/2000/svg" viewBox="0 0 24 24" fill="currentColor">
  <path d="M10 2C10.3 4.8 11.2 6.8 12.5 8.2C13.8 9.5 15.8 10.4 18.5 10.8C15.8 11.2 13.8 12.1 12.5 13.4C11.2 14.8 10.3 16.8 10 19.5C9.7 16.8 8.8 14.8 7.5 13.4C6.2 12.1 4.2 11.2 1.5 10.8C4.2 10.4 6.2 9.5 7.5 8.2C8.8 6.8 9.7 4.8 10 2Z"/>
  <path d="M19.5 13C19.7 14.4 20.2 15.4 21 16.2C21.8 17 22.8 17.5 24.2 17.7C22.8 17.9 21.8 18.4 21 19.2C20.2 20 19.7 21 19.5 22.4C19.3 21 18.8 20 18 19.2C17.2 18.4 16.2 17.9 14.8 17.7C16.2 17.5 17.2 17 18 16.2C18.8 15.4 19.3 14.4 19.5 13Z"/>
</svg>
