<svg width="22" height="24" viewBox="0 0 22 24" fill="none" xmlns="http://www.w3.org/2000/svg">
<path d="M11.1633 12.3167L9.35 7.13114C9.32279 7.05332 9.27478 6.9864 9.2123 6.9392C9.14982 6.892 9.0758 6.86673 9 6.86673C8.9242 6.86673 8.85019 6.892 8.7877 6.9392C8.72522 6.9864 8.67721 7.05332 8.65 7.13114L6.83667 12.3167C6.81783 12.3706 6.78893 12.4195 6.75182 12.4604C6.71471 12.5012 6.67023 12.533 6.62125 12.5537L1.90708 14.5484C1.83634 14.5783 1.7755 14.6311 1.73259 14.6998C1.68968 14.7686 1.66671 14.85 1.66671 14.9334C1.66671 15.0167 1.68968 15.0982 1.73259 15.1669C1.7755 15.2356 1.83634 15.2884 1.90708 15.3184L6.62125 17.313C6.67023 17.3338 6.71471 17.3656 6.75182 17.4064C6.78893 17.4472 6.81783 17.4961 6.83667 17.55L8.65 22.7356C8.67721 22.8134 8.72522 22.8803 8.7877 22.9275C8.85019 22.9747 8.9242 23 9 23C9.0758 23 9.14982 22.9747 9.2123 22.9275C9.27478 22.8803 9.32279 22.8134 9.35 22.7356L11.1633 17.55C11.1822 17.4961 11.2111 17.4472 11.2482 17.4064C11.2853 17.3656 11.3298 17.3338 11.3788 17.313L16.0929 15.3184C16.1637 15.2884 16.2245 15.2356 16.2674 15.1669C16.3103 15.0982 16.3333 15.0167 16.3333 14.9334C16.3333 14.85 16.3103 14.7686 16.2674 14.6998C16.2245 14.6311 16.1637 14.5783 16.0929 14.5484L11.3788 12.5537C11.3298 12.533 11.2853 12.5012 11.2482 12.4604C11.2111 12.4195 11.1822 12.3706 11.1633 12.3167ZM4.83333 3.38334L4 1L3.16667 3.38334L1 4.30001L3.16667 5.21668L4 7.60002L4.83333 5.21668L7 4.30001L4.83333 3.38334ZM18.1113 5.6443L17 2.46667L15.8887 5.6443L13 6.86668L15.8887 8.08906L17 11.2667L18.1113 8.08906L21 6.86668L18.1113 5.6443Z" stroke="#B2F041" stroke-width="2" stroke-linecap="round" stroke-linejoin="round"/>
</svg>
