<svg width="22" height="22" viewBox="0 0 22 22" fill="none" xmlns="http://www.w3.org/2000/svg">
<path d="M9 5.33301C9.24316 5.33301 9.48122 5.39803 9.69043 5.51953L9.77832 5.5752L9.86133 5.63672C10.0231 5.76672 10.1533 5.93166 10.2422 6.11914L10.2832 6.21484L11.9971 10.6699L16.4521 12.3838C16.6788 12.4711 16.8778 12.6164 17.0293 12.8047L17.0918 12.8887L17.1475 12.9766C17.2688 13.1857 17.333 13.424 17.333 13.667C17.3329 13.9448 17.2491 14.2163 17.0918 14.4453C16.9345 14.6743 16.7115 14.8504 16.4521 14.9502L11.9961 16.6631L10.2832 21.1182C10.1834 21.3776 10.0074 21.6014 9.77832 21.7588C9.54927 21.916 9.27783 22 9 22C8.72217 22 8.45073 21.916 8.22168 21.7588C7.99258 21.6014 7.81657 21.3776 7.7168 21.1182L6.00293 16.6631L1.54785 14.9502C1.28855 14.8504 1.06551 14.6743 0.908203 14.4453C0.770531 14.2449 0.689168 14.0118 0.670898 13.7705L0.666992 13.667L0.670898 13.5625C0.689216 13.3215 0.770726 13.089 0.908203 12.8887L0.970703 12.8047C1.12224 12.6164 1.32115 12.4711 1.54785 12.3838L6.00195 10.6699L7.7168 6.21484L7.75781 6.11914C7.86147 5.90061 8.02129 5.71283 8.22168 5.5752L8.30957 5.51953C8.51878 5.39803 8.75684 5.33301 9 5.33301ZM7.77051 11.6465C7.70145 11.8261 7.59504 11.9899 7.45898 12.126C7.32304 12.2619 7.15986 12.3675 6.98047 12.4365L3.78223 13.666L6.98047 14.8965C7.11495 14.9482 7.24 15.021 7.35156 15.1113L7.45898 15.208L7.55566 15.3145C7.64609 15.4261 7.71872 15.5518 7.77051 15.6865H7.76953L9 18.8848L10.2295 15.6865C10.2985 15.507 10.405 15.344 10.541 15.208L10.6484 15.1113C10.76 15.021 10.885 14.9482 11.0195 14.8965L14.2168 13.666L11.0195 12.4365C10.8401 12.3675 10.677 12.2619 10.541 12.126C10.4049 11.9899 10.2985 11.8261 10.2295 11.6465L9 8.44727L7.77051 11.6465ZM17 1.33301C17.4137 1.33301 17.785 1.58845 17.9336 1.97461L18.8848 4.44824L21.3594 5.40039C21.7452 5.54901 21.9999 5.91954 22 6.33301C22 6.74664 21.7454 7.11797 21.3594 7.2666L18.8848 8.21777L17.9336 10.6924C17.785 11.0785 17.4137 11.333 17 11.333C16.5862 11.333 16.215 11.0785 16.0664 10.6924L15.1143 8.21777L12.6406 7.2666C12.2546 7.11797 12 6.74664 12 6.33301C12.0001 5.91954 12.2548 5.54901 12.6406 5.40039L15.1143 4.44824L16.0664 1.97461L16.1328 1.83594C16.309 1.52853 16.638 1.33301 17 1.33301ZM4 0C4.41368 0 4.78499 0.25458 4.93359 0.640625L5.60645 2.39258L7.35938 3.06641C7.74542 3.21501 8 3.58632 8 4C8 4.41368 7.74542 4.78499 7.35938 4.93359L5.60645 5.60645L4.93359 7.35938C4.78499 7.74543 4.41368 8 4 8C3.58632 8 3.21501 7.74543 3.06641 7.35938L2.39258 5.60645L0.640625 4.93359C0.254581 4.78499 0 4.41368 0 4C2.74029e-06 3.58632 0.25458 3.21501 0.640625 3.06641L2.39258 2.39258L3.06641 0.640625L3.13281 0.50293C3.30898 0.195385 3.63792 0 4 0Z" fill="#B2F041"/>
</svg>
